<mxfile host="Electron" modified="2023-09-30T14:04:08.249Z" agent="Mozilla/5.0 (Windows NT 10.0; Win64; x64) AppleWebKit/537.36 (KHTML, like Gecko) draw.io/21.7.5 Chrome/114.0.5735.289 Electron/25.8.1 Safari/537.36" etag="wEVtFZr37eTIo4jcttsG" version="21.7.5" type="device">
  <diagram name="Page-1" id="73va8vhUniYx6z3y8TqJ">
    <mxGraphModel dx="1434" dy="844" grid="1" gridSize="10" guides="1" tooltips="1" connect="1" arrows="1" fold="1" page="1" pageScale="1" pageWidth="1500" pageHeight="1500" math="0" shadow="0">
      <root>
        <mxCell id="0" />
        <mxCell id="1" parent="0" />
        <mxCell id="7ZKSkmmZ35snbYogOjQE-1" value="" style="shape=actor;whiteSpace=wrap;html=1;" parent="1" vertex="1">
          <mxGeometry x="530" y="80" width="80" height="100" as="geometry" />
        </mxCell>
        <mxCell id="7ZKSkmmZ35snbYogOjQE-7" style="edgeStyle=orthogonalEdgeStyle;rounded=0;orthogonalLoop=1;jettySize=auto;html=1;startArrow=block;startFill=1;endArrow=block;endFill=1;" parent="1" source="7ZKSkmmZ35snbYogOjQE-10" target="7ZKSkmmZ35snbYogOjQE-8" edge="1">
          <mxGeometry relative="1" as="geometry">
            <mxPoint x="390" y="260" as="targetPoint" />
          </mxGeometry>
        </mxCell>
        <mxCell id="zUaHTh0Yv9h0iudAf7Aj-3" style="edgeStyle=orthogonalEdgeStyle;rounded=0;orthogonalLoop=1;jettySize=auto;html=1;entryX=0.5;entryY=1;entryDx=0;entryDy=0;" edge="1" parent="1" source="7ZKSkmmZ35snbYogOjQE-4" target="zUaHTh0Yv9h0iudAf7Aj-1">
          <mxGeometry relative="1" as="geometry" />
        </mxCell>
        <mxCell id="7ZKSkmmZ35snbYogOjQE-4" value="User Management Controller" style="rounded=0;whiteSpace=wrap;html=1;" parent="1" vertex="1">
          <mxGeometry x="120" y="500" width="120" height="60" as="geometry" />
        </mxCell>
        <mxCell id="7ZKSkmmZ35snbYogOjQE-6" style="edgeStyle=orthogonalEdgeStyle;rounded=0;orthogonalLoop=1;jettySize=auto;html=1;entryX=0.5;entryY=1;entryDx=0;entryDy=0;" parent="1" source="7ZKSkmmZ35snbYogOjQE-5" target="7ZKSkmmZ35snbYogOjQE-4" edge="1">
          <mxGeometry relative="1" as="geometry" />
        </mxCell>
        <mxCell id="7ZKSkmmZ35snbYogOjQE-5" value="Get Profile" style="shape=process;whiteSpace=wrap;html=1;backgroundOutline=1;" parent="1" vertex="1">
          <mxGeometry x="120" y="630" width="120" height="60" as="geometry" />
        </mxCell>
        <mxCell id="7ZKSkmmZ35snbYogOjQE-9" style="edgeStyle=orthogonalEdgeStyle;rounded=0;orthogonalLoop=1;jettySize=auto;html=1;entryX=0.5;entryY=1;entryDx=0;entryDy=0;startArrow=block;startFill=1;" parent="1" source="7ZKSkmmZ35snbYogOjQE-8" target="7ZKSkmmZ35snbYogOjQE-1" edge="1">
          <mxGeometry relative="1" as="geometry" />
        </mxCell>
        <mxCell id="7ZKSkmmZ35snbYogOjQE-8" value="Add Expense To Budget Table" style="shape=step;perimeter=stepPerimeter;whiteSpace=wrap;html=1;fixedSize=1;" parent="1" vertex="1">
          <mxGeometry x="370" y="190" width="130" height="80" as="geometry" />
        </mxCell>
        <mxCell id="7ZKSkmmZ35snbYogOjQE-11" value="" style="edgeStyle=orthogonalEdgeStyle;rounded=0;orthogonalLoop=1;jettySize=auto;html=1;entryX=0.5;entryY=1;entryDx=0;entryDy=0;" parent="1" source="7ZKSkmmZ35snbYogOjQE-4" target="7ZKSkmmZ35snbYogOjQE-12" edge="1">
          <mxGeometry relative="1" as="geometry">
            <mxPoint x="435" y="270" as="targetPoint" />
            <mxPoint x="510" y="470" as="sourcePoint" />
          </mxGeometry>
        </mxCell>
        <mxCell id="zUaHTh0Yv9h0iudAf7Aj-5" style="edgeStyle=orthogonalEdgeStyle;rounded=0;orthogonalLoop=1;jettySize=auto;html=1;entryX=0.5;entryY=0;entryDx=0;entryDy=0;" edge="1" parent="1" source="7ZKSkmmZ35snbYogOjQE-10" target="zUaHTh0Yv9h0iudAf7Aj-1">
          <mxGeometry relative="1" as="geometry" />
        </mxCell>
        <UserObject label="Budgeting Controller" tooltip="Component&#xa;" id="7ZKSkmmZ35snbYogOjQE-10">
          <mxCell style="rounded=0;whiteSpace=wrap;html=1;" parent="1" vertex="1">
            <mxGeometry x="240" y="300" width="120" height="60" as="geometry" />
          </mxCell>
        </UserObject>
        <mxCell id="7ZKSkmmZ35snbYogOjQE-13" style="edgeStyle=orthogonalEdgeStyle;rounded=0;orthogonalLoop=1;jettySize=auto;html=1;entryX=0;entryY=0.5;entryDx=0;entryDy=0;" parent="1" source="7ZKSkmmZ35snbYogOjQE-12" target="7ZKSkmmZ35snbYogOjQE-10" edge="1">
          <mxGeometry relative="1" as="geometry" />
        </mxCell>
        <mxCell id="7ZKSkmmZ35snbYogOjQE-12" value="Get Expenses" style="shape=process;whiteSpace=wrap;html=1;backgroundOutline=1;" parent="1" vertex="1">
          <mxGeometry x="120" y="390" width="120" height="60" as="geometry" />
        </mxCell>
        <mxCell id="zUaHTh0Yv9h0iudAf7Aj-7" style="edgeStyle=orthogonalEdgeStyle;rounded=0;orthogonalLoop=1;jettySize=auto;html=1;" edge="1" parent="1" source="zUaHTh0Yv9h0iudAf7Aj-1" target="zUaHTh0Yv9h0iudAf7Aj-6">
          <mxGeometry relative="1" as="geometry" />
        </mxCell>
        <mxCell id="zUaHTh0Yv9h0iudAf7Aj-1" value="Update &lt;br&gt;Expenses" style="shape=process;whiteSpace=wrap;html=1;backgroundOutline=1;" vertex="1" parent="1">
          <mxGeometry x="350" y="400" width="120" height="60" as="geometry" />
        </mxCell>
        <mxCell id="zUaHTh0Yv9h0iudAf7Aj-6" value="Budgeting Library" style="whiteSpace=wrap;html=1;aspect=fixed;" vertex="1" parent="1">
          <mxGeometry x="540" y="450" width="80" height="80" as="geometry" />
        </mxCell>
        <mxCell id="zUaHTh0Yv9h0iudAf7Aj-8" value="Budget" style="shape=cylinder3;whiteSpace=wrap;html=1;boundedLbl=1;backgroundOutline=1;size=15;" vertex="1" parent="1">
          <mxGeometry x="660" y="450" width="100" height="90" as="geometry" />
        </mxCell>
      </root>
    </mxGraphModel>
  </diagram>
</mxfile>
